#!OML:ASF F:\VICON\USERDATA\INSTALL\Justin_Nancy\Justin_Nancy.ASF
:FULLY-SPECIFIED
:DEGREES
1
root 14.9499 16.9155 -29.9451 2.10765 -7.30922 0.186524
lowerback 8.36422 1.31168 2.0183
upperback 0.898941 2.08505 3.97442
thorax -3.83729 1.02868 2.75156
lowerneck -15.0648 -3.50354 -8.22237
upperneck 12.8086 -3.75675 5.06697
head 6.62848 -1.7934 2.5905
rclavicle 4.77083e-015 4.13472e-014
rhumerus -44.6468 10.0556 -88.5147
rradius 94.0649
rwrist -6.32939
rhand -16.5685 23.6114
rfingers 7.12502
rthumb 9.65166 -6.1475
lclavicle 4.77083e-015 4.13472e-014
lhumerus -47.3741 -13.0584 100.396
lradius 92.9659
lwrist 23.534
lhand -17.2355 8.78467
lfingers 7.12502
lthumb 9.00815 38.5723
rfemur -4.9287 1.74027 33.2619
rtibia 38.7305
rfoot -17.5164 -7.18417
rtoes -2.50365
lfemur -26.725 4.94577 -11.0945
ltibia 83.3135
lfoot -2.06095 -0.902572
ltoes -17.4639
2
root 14.9261 16.9833 -29.5945 2.35949 -7.83142 -0.095574
lowerback 8.30734 1.63363 2.66325
upperback 0.76815 2.57087 3.86444
thorax -3.92493 1.25737 2.21802
lowerneck -15.3863 -3.68743 -8.12192
upperneck 13.3959 -4.00744 4.99593
head 6.88647 -1.91484 2.52245
rclavicle -3.77691e-015 -3.02153e-014
rhumerus -44.5492 10.1173 -88.7875
rradius 94.5249
rwrist -6.32712
rhand -16.4287 23.493
rfingers 7.12502
rthumb 9.78657 -6.25955
lclavicle -3.77691e-015 -3.02153e-014
lhumerus -48.1672 -13.0278 100.374
lradius 93.2597
lwrist 23.4056
lhand -18.1855 9.59594
lfingers 7.12502
lthumb 8.09132 39.421
rfemur -3.45556 2.2636 33.3661
rtibia 37.7782
rfoot -16.0089 -6.47152
rtoes -4.02842
lfemur -28.0182 5.5867 -10.8648
ltibia 81.6568
lfoot -3.04791 0.0154318
ltoes -15.5847
3
root 14.9007 17.0612 -29.2435 2.68536 -7.93276 -0.0159097
lowerback 7.94956 1.75124 2.94801
upperback 0.623947 2.73683 3.75835
thorax -3.85952 1.33447 1.93748
lowerneck -15.2554 -3.82615 -8.35546
upperneck 13.7696 -4.16944 5.01871
head 7.00238 -2.00749 2.55229
rclavicle 1.98785e-015 3.65764e-014
rhumerus -44.2996 10.6717 -88.9741
rradius 94.7581
rwrist -6.42549
rhand -16.2764 23.3972
rfingers 7.12502
rthumb 9.93352 -6.34843
lclavicle 1.98785e-015 3.65764e-014
lhumerus -48.9871 -12.5172 100.318
lradius 93.6286
lwrist 23.4385
lhand -18.6331 9.84447
lfingers 7.12502
lthumb 7.65925 39.6858
rfemur -2.29336 2.39335 33.0827
rtibia 37.0594
rfoot -14.6905 -5.79913
rtoes -5.58835
lfemur -29.4671 5.70394 -11.1014
ltibia 79.5771
lfoot -2.89765 1.17687
ltoes -12.7973
4
root 14.8752 17.1399 -28.887 3.0055 -7.75665 0.164924
lowerback 7.52975 1.74282 3.20771
upperback 0.371168 2.73165 3.5962
thorax -3.86677 1.32568 1.63351
lowerneck -14.7593 -3.67385 -8.52879
upperneck 13.7633 -4.00373 5.23729
head 6.91186 -1.92524 2.67579
rclavicle 1.09332e-014 -1.43125e-014
rhumerus -44.4275 11.3807 -89.3016
rradius 95.1539
rwrist -6.53533
rhand -16.3274 23.2528
rfingers 7.12502
rthumb 9.88431 -6.49513
lclavicle 1.09332e-014 -1.43125e-014
lhumerus -50.0277 -11.9369 100.227
lradius 93.956
lwrist 23.4327
lhand -18.5612 10.052
lfingers 7.12502
lthumb 7.72865 39.8908
rfemur -1.1993 2.10039 32.6296
rtibia 36.3426
rfoot -13.1717 -4.7453
rtoes -6.08515
lfemur -30.7285 5.49196 -11.4128
ltibia 77.3583
lfoot -3.08369 2.40395
ltoes -10.4395
5
root 14.8481 17.2243 -28.5146 3.36663 -7.73671 0.502704
lowerback 6.97855 1.79188 3.35727
upperback 0.174618 2.77781 3.33515
thorax -3.74142 1.34477 1.28889
lowerneck -14.7295 -3.57357 -8.55259
upperneck 13.9008 -3.89229 5.37552
head 6.94619 -1.86257 2.73817
rclavicle 2.14687e-014 -2.06736e-014
rhumerus -44.8171 11.8156 -89.6662
rradius 95.8375
rwrist -6.36928
rhand -16.2715 23.6469
rfingers 7.12502
rthumb 9.93825 -6.09847
lclavicle 2.14687e-014 -2.06736e-014
lhumerus -50.8492 -11.4715 100.033
lradius 94.1301
lwrist 23.2246
lhand -18.4878 10.5425
lfingers 7.12502
lthumb 7.79955 40.3786
rfemur -0.108582 1.85121 31.9145
rtibia 35.5072
rfoot -11.0599 -3.39634
rtoes -5.5333
lfemur -31.7159 5.23918 -11.9534
ltibia 74.8392
lfoot -3.2288 3.70521
ltoes -9.94962
6
root 14.8139 17.3009 -28.1778 3.98349 -7.77756 0.303862
lowerback 6.76603 1.8442 3.7781
upperback -0.275122 2.89086 3.30921
thorax -4.06813 1.38585 1.01653
lowerneck -14.2602 -3.67902 -8.67564
upperneck 14.2031 -4.04382 5.28012
head 6.97554 -1.95964 2.71638
rclavicle -2.96189e-014 3.18055e-015
rhumerus -45.5222 12.2855 -89.9434
rradius 96.4665
rwrist -6.12449
rhand -15.9446 23.9769
rfingers 7.12502
rthumb 10.2536 -5.75322
lclavicle -2.96189e-014 3.18055e-015
lhumerus -51.9413 -10.7184 99.8915
lradius 94.4164
lwrist 23.0731
lhand -18.6214 10.3598
lfingers 7.12502
lthumb 7.67061 40.2007
rfemur 0.552842 1.99898 31.9307
rtibia 34.6051
rfoot -8.391 -2.51423
rtoes -5.17974
lfemur -33.1414 5.11029 -11.7757
ltibia 72.212
lfoot -2.9922 4.74711
ltoes -8.65739
7
root 14.7957 17.3935 -27.774 3.69472 -8.77509 0.381806
lowerback 6.7606 2.20338 4.12691
upperback -0.301515 3.39036 3.15059
thorax -4.05896 1.62367 0.608918
lowerneck -13.9677 -3.52197 -8.56123
upperneck 13.8649 -3.86936 5.2773
head 6.80049 -1.87144 2.71703
rclavicle 3.1408e-014 1.11319e-014
rhumerus -46.0923 12.7988 -90.2086
rradius 96.8485
rwrist -5.8229
rhand -15.8143 23.9722
rfingers 7.12502
rthumb 10.3793 -5.75162
lclavicle 3.1408e-014 1.11319e-014
lhumerus -52.9216 -10.1315 99.7012
lradius 94.6252
lwrist 23.0786
lhand -18.3058 10.0518
lfingers 7.12502
lthumb 7.97518 39.8813
rfemur 2.62029 2.34979 31.3221
rtibia 33.3976
rfoot -6.02911 -1.18028
rtoes -5.95111
lfemur -32.6386 5.51834 -11.9192
ltibia 69.0618
lfoot -3.73976 5.75937
ltoes -8.00051
8
root 14.764 17.4773 -27.3952 4.03274 -8.46037 0.759328
lowerback 6.24655 2.14581 4.14242
upperback -0.242223 3.2715 2.97725
thorax -3.69835 1.56987 0.454798
lowerneck -15.2214 -3.54855 -8.53768
upperneck 14.3888 -3.80678 5.22437
head 7.17985 -1.83095 2.69316
rclavicle 1.77912e-014 1.74931e-014
rhumerus -45.6734 13.4974 -90.2685
rradius 96.86
rwrist -5.44743
rhand -16.1018 24.0885
rfingers 7.12502
rthumb 10.102 -5.64905
lclavicle 1.77912e-014 1.74931e-014
lhumerus -53.0694 -9.5727 99.3871
lradius 94.7378
lwrist 22.9597
lhand -18.3698 9.83527
lfingers 7.12502
lthumb 7.9134 39.6672
rfemur 3.75455 2.02345 30.6213
rtibia 32.1591
rfoot -3.41652 -0.264189
rtoes -6.21111
lfemur -33.3346 4.72659 -12.2977
ltibia 65.7669
lfoot -3.43945 6.63103
ltoes -7.16028
9
root 14.7373 17.5619 -26.9711 4.05471 -9.35312 1.24984
lowerback 5.56093 2.44359 4.03997
upperback 0.173979 3.58852 2.7879
thorax -2.86879 1.74526 0.33071
lowerneck -16.9769 -3.63221 -8.81102
upperneck 15.319 -3.72527 5.23208
head 7.78904 -1.79023 2.73999
rclavicle -6.75868e-014 -3.33958e-014
rhumerus -45.0992 14.2555 -90.0798
rradius 97.0535
rwrist -5.6636
rhand -15.5185 24.6179
rfingers 7.12502
rthumb 10.6646 -5.09143
lclavicle -6.75868e-014 -3.33958e-014
lhumerus -53.133 -8.78984 99.1089
lradius 94.9814
lwrist 22.5601
lhand -18.5655 9.55642
lfingers 7.12502
lthumb 7.72453 39.3953
rfemur 5.48754 2.53647 29.5798
rtibia 30.7579
rfoot -0.903399 0.928589
rtoes -6.49343
lfemur -32.9863 4.86039 -12.776
ltibia 62.1488
lfoot -2.10366 7.90852
ltoes -4.64657
10
root 14.7074 17.6291 -26.5821 4.4341 -9.60868 1.52218
lowerback 5.10005 2.7001 4.23293
upperback 0.144254 3.90446 2.45106
thorax -2.5976 1.90272 -0.121853
lowerneck -17.8902 -3.93473 -8.65227
upperneck 16.091 -4.10701 5.16153
head 8.22937 -1.96219 2.63935
rclavicle 3.43897e-014 9.54166e-015
rhumerus -44.9905 14.4337 -90.2773
rradius 97.3247
rwrist -4.95054
rhand -15.9363 23.9488
rfingers 7.12502
rthumb 10.2616 -5.78087
lclavicle 3.43897e-014 9.54166e-015
lhumerus -53.6595 -8.69926 98.7599
lradius 95.3428
lwrist 22.2934
lhand -18.7217 9.87351
lfingers 7.12502
lthumb 7.57378 39.7179
rfemur 6.61504 2.64652 28.872
rtibia 29.367
rfoot 1.61529 1.76951
rtoes -7.45483
lfemur -33.322 4.32559 -12.928
ltibia 58.4634
lfoot -4.32469 7.3002
ltoes -11.3444
